HIERARCHY
ROOT Hips
{
  OFFSET 150.432 88.1888 27.0678
  CHANNELS 6 Xposition Yposition Zposition Zrotation Xrotation Yrotation
  JOINT RightUpLeg
  {
    OFFSET -9.25679 -1.50405 0.000749919
    CHANNELS 3 Zrotation Xrotation Yrotation
    JOINT RightLeg
    {
      OFFSET 0.0460649 -41.9017 0.109432
      CHANNELS 3 Zrotation Xrotation Yrotation
      JOINT RightFoot
      {
        OFFSET 1.7988 -41.6468 0.413135
        CHANNELS 3 Zrotation Xrotation Yrotation
        End Site
        {
          OFFSET 0 -7.69 17.5
        }
      }
    }
  }
  JOINT LeftUpLeg
  {
    OFFSET 9.37007 -1.70178 -0.0772456
    CHANNELS 3 Zrotation Xrotation Yrotation
    JOINT LeftLeg
    {
      OFFSET 0.225295 -41.8622 -0.102498
      CHANNELS 3 Zrotation Xrotation Yrotation
      JOINT LeftFoot
      {
        OFFSET -2.07126 -41.2817 -1.22305
        CHANNELS 3 Zrotation Xrotation Yrotation
        End Site
        {
          OFFSET 0 -7.69 17.5
        }
      }
    }
  }
  JOINT Spine
  {
    OFFSET 0.0614897 14.2979 0.0172263
    CHANNELS 3 Zrotation Xrotation Yrotation
    JOINT Spine1
    {
      OFFSET 0.0253415 9.71429 0.00919728
      CHANNELS 3 Zrotation Xrotation Yrotation
      JOINT Spine2
      {
        OFFSET -0.0163533 10.1275 0.00641818
        CHANNELS 3 Zrotation Xrotation Yrotation
        JOINT Spine3
        {
          OFFSET 0.00964153 9.71178 0.018187
          CHANNELS 3 Zrotation Xrotation Yrotation
          JOINT Neck
          {
            OFFSET -0.0402277 10.3749 0.0917408
            CHANNELS 3 Zrotation Xrotation Yrotation
            JOINT Head
            {
              OFFSET 0.0121048 9.49481 0.108971
              CHANNELS 3 Zrotation Xrotation Yrotation
              End Site
              {
                OFFSET 0 15.95 0
              }
            }
          }
          JOINT RightShoulder
          {
            OFFSET -3.18208 6.946 0.015457
            CHANNELS 3 Zrotation Xrotation Yrotation
            JOINT RightArm
            {
              OFFSET -12.7708 0.0386499 -0.00729584
              CHANNELS 3 Zrotation Xrotation Yrotation
              JOINT RightForeArm
              {
                OFFSET -26.422 0.00272702 0.0331834
                CHANNELS 3 Zrotation Xrotation Yrotation
                JOINT RightHand
                {
                  OFFSET -25.9963 -0.0318335 0.00677283
                  CHANNELS 3 Zrotation Xrotation Yrotation
                  JOINT RightHandThumb1
                  {
                    OFFSET -2.48905 0.190105 3.12053
                    CHANNELS 3 Zrotation Xrotation Yrotation
                    JOINT RightHandThumb2
                    {
                      OFFSET -3.68274 0 0
                      CHANNELS 3 Zrotation Xrotation Yrotation
                      JOINT RightHandThumb3
                      {
                        OFFSET -2.55832 0 0
                        CHANNELS 3 Zrotation Xrotation Yrotation
                        End Site
                        {
                          OFFSET -2.194 0 0
                        }
                      }
                    }
                  }
                  JOINT RightInHandIndex
                  {
                    OFFSET -3.22368 0.508421 1.97842
                    CHANNELS 3 Zrotation Xrotation Yrotation
                    JOINT RightHandIndex1
                    {
                      OFFSET -5.21684 -0.091368 0.999158
                      CHANNELS 3 Zrotation Xrotation Yrotation
                      JOINT RightHandIndex2
                      {
                        OFFSET -3.61937 0 0
                        CHANNELS 3 Zrotation Xrotation Yrotation
                        JOINT RightHandIndex3
                        {
                          OFFSET -2.0521 0 0
                          CHANNELS 3 Zrotation Xrotation Yrotation
                          End Site
                          {
                            OFFSET -1.805 0 0
                          }
                        }
                      }
                    }
                  }
                  JOINT RightInHandMiddle
                  {
                    OFFSET -3.38211 0.517263 0.756737
                    CHANNELS 3 Zrotation Xrotation Yrotation
                    JOINT RightHandMiddle1
                    {
                      OFFSET -5.17411 -0.084 0.313895
                      CHANNELS 3 Zrotation Xrotation Yrotation
                      JOINT RightHandMiddle2
                      {
                        OFFSET -3.94947 0 0
                        CHANNELS 3 Zrotation Xrotation Yrotation
                        JOINT RightHandMiddle3
                        {
                          OFFSET -2.47579 0 0
                          CHANNELS 3 Zrotation Xrotation Yrotation
                          End Site
                          {
                            OFFSET -1.975 0 0
                          }
                        }
                      }
                    }
                  }
                  JOINT RightInHandRing
                  {
                    OFFSET -3.36516 0.537895 -0.128947
                    CHANNELS 3 Zrotation Xrotation Yrotation
                    JOINT RightHandRing1
                    {
                      OFFSET -4.63474 -0.022105 -0.478947
                      CHANNELS 3 Zrotation Xrotation Yrotation
                      JOINT RightHandRing2
                      {
                        OFFSET -3.44238 0 0
                        CHANNELS 3 Zrotation Xrotation Yrotation
                        JOINT RightHandRing3
                        {
                          OFFSET -2.3881 0 0
                          CHANNELS 3 Zrotation Xrotation Yrotation
                          End Site
                          {
                            OFFSET -1.857 0 0
                          }
                        }
                      }
                    }
                  }
                  JOINT RightInHandPinky
                  {
                    OFFSET -3.16105 0.469368 -1.20179
                    CHANNELS 3 Zrotation Xrotation Yrotation
                    JOINT RightHandPinky1
                    {
                      OFFSET -4.14105 -0.022105 -1.09053
                      CHANNELS 3 Zrotation Xrotation Yrotation
                      JOINT RightHandPinky2
                      {
                        OFFSET -2.75653 0 0
                        CHANNELS 3 Zrotation Xrotation Yrotation
                        JOINT RightHandPinky3
                        {
                          OFFSET -1.74189 0 0
                          CHANNELS 3 Zrotation Xrotation Yrotation
                          End Site
                          {
                            OFFSET -1.645 0 0
                          }
                        }
                      }
                    }
                  }
                }
              }
            }
          }
          JOINT LeftShoulder
          {
            OFFSET 3.18966 6.92856 0.062398
            CHANNELS 3 Zrotation Xrotation Yrotation
            JOINT LeftArm
            {
              OFFSET 12.7601 -0.0509086 0.00275124
              CHANNELS 3 Zrotation Xrotation Yrotation
              JOINT LeftForeArm
              {
                OFFSET 26.4828 -0.0571091 -0.0285564
                CHANNELS 3 Zrotation Xrotation Yrotation
                JOINT LeftHand
                {
                  OFFSET 25.9994 -0.0171136 -0.0547064
                  CHANNELS 3 Zrotation Xrotation Yrotation
                  JOINT LeftHandThumb1
                  {
                    OFFSET 2.48905 0.190105 3.12053
                    CHANNELS 3 Zrotation Xrotation Yrotation
                    JOINT LeftHandThumb2
                    {
                      OFFSET 3.68274 0 0
                      CHANNELS 3 Zrotation Xrotation Yrotation
                      JOINT LeftHandThumb3
                      {
                        OFFSET 2.55832 0 0
                        CHANNELS 3 Zrotation Xrotation Yrotation
                        End Site
                        {
                          OFFSET 2.194 0 0
                        }
                      }
                    }
                  }
                  JOINT LeftInHandIndex
                  {
                    OFFSET 3.22368 0.508421 1.97842
                    CHANNELS 3 Zrotation Xrotation Yrotation
                    JOINT LeftHandIndex1
                    {
                      OFFSET 5.21684 -0.091368 0.999158
                      CHANNELS 3 Zrotation Xrotation Yrotation
                      JOINT LeftHandIndex2
                      {
                        OFFSET 3.61937 0 0
                        CHANNELS 3 Zrotation Xrotation Yrotation
                        JOINT LeftHandIndex3
                        {
                          OFFSET 2.0521 0 0
                          CHANNELS 3 Zrotation Xrotation Yrotation
                          End Site
                          {
                            OFFSET 1.805 0 0
                          }
                        }
                      }
                    }
                  }
                  JOINT LeftInHandMiddle
                  {
                    OFFSET 3.38211 0.517263 0.756737
                    CHANNELS 3 Zrotation Xrotation Yrotation
                    JOINT LeftHandMiddle1
                    {
                      OFFSET 5.17411 -0.084 0.313895
                      CHANNELS 3 Zrotation Xrotation Yrotation
                      JOINT LeftHandMiddle2
                      {
                        OFFSET 3.94947 0 0
                        CHANNELS 3 Zrotation Xrotation Yrotation
                        JOINT LeftHandMiddle3
                        {
                          OFFSET 2.47579 0 0
                          CHANNELS 3 Zrotation Xrotation Yrotation
                          End Site
                          {
                            OFFSET 1.975 0 0
                          }
                        }
                      }
                    }
                  }
                  JOINT LeftInHandRing
                  {
                    OFFSET 3.36516 0.537895 -0.128947
                    CHANNELS 3 Zrotation Xrotation Yrotation
                    JOINT LeftHandRing1
                    {
                      OFFSET 4.63474 -0.022105 -0.478947
                      CHANNELS 3 Zrotation Xrotation Yrotation
                      JOINT LeftHandRing2
                      {
                        OFFSET 3.44238 0 0
                        CHANNELS 3 Zrotation Xrotation Yrotation
                        JOINT LeftHandRing3
                        {
                          OFFSET 2.3881 0 0
                          CHANNELS 3 Zrotation Xrotation Yrotation
                          End Site
                          {
                            OFFSET 1.857 0 0
                          }
                        }
                      }
                    }
                  }
                  JOINT LeftInHandPinky
                  {
                    OFFSET 3.16105 0.469368 -1.20179
                    CHANNELS 3 Zrotation Xrotation Yrotation
                    JOINT LeftHandPinky1
                    {
                      OFFSET 4.14105 -0.022105 -1.09053
                      CHANNELS 3 Zrotation Xrotation Yrotation
                      JOINT LeftHandPinky2
                      {
                        OFFSET 2.75653 0 0
                        CHANNELS 3 Zrotation Xrotation Yrotation
                        JOINT LeftHandPinky3
                        {
                          OFFSET 1.74189 0 0
                          CHANNELS 3 Zrotation Xrotation Yrotation
                          End Site
                          {
                            OFFSET 1.645 0 0
                          }
                        }
                      }
                    }
                  }
                }
              }
            }
          }
        }
      }
    }
  }
}
MOTION
Frames: 3
Frame Time: 0.00833333
1.499784389086644012e+02 9.579905258353279413e-03 5.942040815244632734e-02 2.228378853436163709e-02 -2.472087665223042172e-02 1.456739344885996379e-01 -5.770558789726407123e-02 -1.101425358183491937e-01 -2.067914184455740267e-01 -1.055240153175773521e-01 4.632538352499328271e-02 1.894721659619964527e-01 1.643484427428282615e-02 -6.710592347054025741e-02 -4.348296991686336627e-02 -2.419692044652662841e-02 -1.530269910495937746e-01 -1.436623999182363998e-01 -5.398657861524099738e-02 1.760440682427600809e-02 5.378514931255995446e-02 1.970219028488639709e-02 -1.732385382989678341e-02 5.230346341316012559e-02 -6.464873568713171148e-02 1.894512660629341094e-01 8.905127187597015048e-01 -1.562454111058180807e-02 8.332192791951777144e-02 2.123411928631158685e-01 -2.546980395082826254e-02 1.496655057788324472e-01 3.362766748448050014e-01 1.598288393581537813e-03 -4.043848698892617451e-03 -4.697242774185881459e-02 6.908907347913900709e-02 6.888646148096160340e-03 -1.328520571917051862e+00 -4.753904972433797838e-02 -2.651415232363031893e-01 2.658867024887666061e-02 2.353484629714611975e-01 -2.677664156279235264e-01 -1.441370327098516757e+00 2.168756289596919344e-03 -7.570873767726058468e-01 -3.471091809347526813e-01 -1.161499008385726700e-01 2.432427106843901399e+00 7.968910152244740530e+00 3.466668391201825905e-01 9.438932836541396032e-01 3.748432391714362932e+00 0.000000000000000000e+00 0.000000000000000000e+00 0.000000000000000000e+00 3.029385023756192179e-15 -1.535799512093568525e-14 0.000000000000000000e+00 7.960432172102689282e-15 -4.818547663630383444e-15 0.000000000000000000e+00 -9.921913335992112225e-16 -1.645716687583563298e-15 2.105352744147859515e-15 0.000000000000000000e+00 0.000000000000000000e+00 0.000000000000000000e+00 0.000000000000000000e+00 -8.445741487920407623e-15 2.263772266444744167e-14 0.000000000000000000e+00 2.552930592875920367e-15 6.614525626548445427e-15 -9.921913335992112225e-16 -1.645716687583563298e-15 2.105352744147859515e-15 0.000000000000000000e+00 -9.283620878113286708e-15 7.548803539272055791e-15 0.000000000000000000e+00 -6.337402988579203377e-15 2.557599331596223309e-14 0.000000000000000000e+00 -8.239667462473709732e-15 5.061342377003174896e-15 -9.921913335992112225e-16 -1.645716687583563298e-15 2.105352744147859515e-15 0.000000000000000000e+00 0.000000000000000000e+00 0.000000000000000000e+00 0.000000000000000000e+00 6.477626067557231685e-15 7.750567026619859389e-15 0.000000000000000000e+00 6.849385903140913399e-15 9.377455433199240358e-15 -9.921913335992112225e-16 -1.645716687583563298e-15 2.105352744147859515e-15 0.000000000000000000e+00 0.000000000000000000e+00 0.000000000000000000e+00 0.000000000000000000e+00 1.047755814634770904e-14 1.703975993202608809e-14 0.000000000000000000e+00 -1.375548497676476302e-14 2.652443138849164659e-14 -2.579154742260863498e-01 -4.332217456361370234e-01 -1.487087488297205384e+00 2.329688340774087041e-01 2.117570595414165757e-01 -9.805917561054562637e-02 -6.574475312065074517e-01 -1.288230221303690026e+00 3.522505512260534655e+00 9.814095152650619269e-01 3.853659974647764663e+00 -2.791309174603685772e+00 0.000000000000000000e+00 0.000000000000000000e+00 0.000000000000000000e+00 2.857221757083388347e-15 8.932667875439808538e-15 0.000000000000000000e+00 -9.995359876479953544e-15 -5.229482721744389415e-15 0.000000000000000000e+00 -3.766077755243119301e-15 3.212776469863456026e-15 -1.132992186313702389e-15 0.000000000000000000e+00 0.000000000000000000e+00 0.000000000000000000e+00 0.000000000000000000e+00 -1.084822951782435875e-14 -1.724214405690062528e-14 0.000000000000000000e+00 -7.611163387185303849e-15 4.530665989878684089e-15 -3.766077755243119301e-15 3.212776469863456026e-15 -1.132992186313702389e-15 0.000000000000000000e+00 9.854655689467971561e-15 1.071923907732497778e-15 0.000000000000000000e+00 -1.058573820687315677e-14 3.287257232344973330e-14 0.000000000000000000e+00 -4.339128179671784459e-15 -6.801968996701559315e-15 -3.766077755243119301e-15 3.212776469863456026e-15 -1.132992186313702389e-15 0.000000000000000000e+00 0.000000000000000000e+00 0.000000000000000000e+00 0.000000000000000000e+00 8.716131500394997268e-15 4.056913359097683614e-15 0.000000000000000000e+00 -1.338994040803328450e-14 7.644975268369839347e-15 -3.766077755243119301e-15 3.212776469863456026e-15 -1.132992186313702389e-15 0.000000000000000000e+00 0.000000000000000000e+00 0.000000000000000000e+00 0.000000000000000000e+00 6.384609083516883509e-15 1.144918690963065448e-14 0.000000000000000000e+00 6.775723020482295982e-15 -1.315445327716919710e-14
1.499806732701287331e+02 9.221641826725694019e-03 6.024996792789673317e-02 5.634882034360081532e-03 -2.490312023350220796e-02 1.170661622406960062e-01 -5.044730473857335362e-02 -9.517528218460266642e-02 -1.794903055012347093e-01 -1.024585193497411229e-01 4.938414311557116909e-02 1.742702602590655292e-01 1.543580496392294062e-02 -6.610543523620003581e-02 -3.178936582212739392e-02 -3.883913200670278260e-02 -1.485372124379770453e-01 -1.525679033386737882e-01 -5.253519767795955531e-02 1.148071894929903435e-02 6.212656298782855829e-02 2.626475189874705879e-02 -1.609562232466275195e-02 6.691679174041437195e-02 -8.590219626376811857e-02 2.005691243094059883e-01 1.008368513991694693e+00 -2.086274198301208208e-02 9.035596842066143108e-02 2.411536379710505773e-01 -3.396047496869139537e-02 1.627412161953074032e-01 3.819772876469548217e-01 1.083520687317346409e-03 -2.600171161618823005e-03 -5.356845100630395345e-02 8.585984949540591271e-02 1.187371134680769401e-02 -1.561454493973900348e+00 -4.249861231017518920e-02 -2.804024186742810065e-01 6.789753569582562820e-02 2.430473359129242394e-01 -3.234189698165820248e-01 -1.666318780245085840e+00 -5.981126176837382041e-02 -8.021894588832977346e-01 -4.002278113117943015e-01 -6.645853698141959698e-02 2.740086821436609643e+00 -1.064067161061760736e+01 6.854223178612687262e-01 1.713357379885739773e+00 5.483095901791954496e+00 0.000000000000000000e+00 0.000000000000000000e+00 0.000000000000000000e+00 5.652794122141849797e-15 -3.335262293434754879e-15 0.000000000000000000e+00 5.050306879589582085e-15 1.457695904953439486e-14 0.000000000000000000e+00 -1.083215005606775627e-15 -8.169015449320745396e-15 3.883332403093036338e-15 0.000000000000000000e+00 0.000000000000000000e+00 0.000000000000000000e+00 0.000000000000000000e+00 1.590806718539239941e-15 -3.049976619931186213e-15 0.000000000000000000e+00 -2.032750882610227915e-15 -2.512127404875951359e-14 -1.083215005606775627e-15 -8.169015449320745396e-15 3.883332403093036338e-15 0.000000000000000000e+00 1.745273330397194473e-15 1.130040573451141637e-15 0.000000000000000000e+00 -7.894975596070127246e-15 1.053210445082172336e-14 0.000000000000000000e+00 -9.696385680934419705e-15 2.477180054352260141e-15 -1.083215005606775627e-15 -8.169015449320745396e-15 3.883332403093036338e-15 0.000000000000000000e+00 0.000000000000000000e+00 0.000000000000000000e+00 0.000000000000000000e+00 8.404471382013399060e-15 5.291587747099758479e-15 0.000000000000000000e+00 -8.591174791813219920e-15 -4.112020413134089979e-15 -1.083215005606775627e-15 -8.169015449320745396e-15 3.883332403093036338e-15 0.000000000000000000e+00 0.000000000000000000e+00 0.000000000000000000e+00 0.000000000000000000e+00 -1.735371413654704199e-15 1.783121375054363384e-15 0.000000000000000000e+00 -2.123964006309507104e-15 -5.596651683600129670e-15 -1.807227702154972637e-01 -2.919768843903846611e-01 -1.296957648708360944e+00 3.232578409640156081e-01 -6.193032725468685523e-02 -4.029973232149733908e-01 -8.021809299593378739e-01 -1.399635458404437482e+00 4.092349341000435459e+00 1.056085291509875512e+00 4.381941969391641045e+00 -3.068431734186956472e+00 0.000000000000000000e+00 0.000000000000000000e+00 0.000000000000000000e+00 7.044504165466608094e-15 5.012541265546547848e-15 0.000000000000000000e+00 5.888403409392891238e-15 -8.939969777309910198e-15 0.000000000000000000e+00 -4.127396638023519048e-15 3.481892988488819906e-15 2.683168467263603288e-15 0.000000000000000000e+00 0.000000000000000000e+00 0.000000000000000000e+00 0.000000000000000000e+00 -4.909018651506970936e-15 -1.348824885579029824e-14 0.000000000000000000e+00 6.996237192688441099e-15 3.004566983066936959e-15 -4.127396638023519048e-15 3.481892988488819906e-15 2.683168467263603288e-15 0.000000000000000000e+00 1.364105647617215015e-14 -2.350096732006978366e-15 0.000000000000000000e+00 -1.267124808568252453e-15 2.872890393450127697e-15 0.000000000000000000e+00 1.946090590599483335e-15 -1.524936606420487342e-14 -4.127396638023519048e-15 3.481892988488819906e-15 2.683168467263603288e-15 0.000000000000000000e+00 0.000000000000000000e+00 0.000000000000000000e+00 0.000000000000000000e+00 8.996351115028780146e-15 1.252757346626095898e-15 0.000000000000000000e+00 -4.237427522004480140e-15 -4.436373045984940357e-15 -4.127396638023519048e-15 3.481892988488819906e-15 2.683168467263603288e-15 0.000000000000000000e+00 0.000000000000000000e+00 0.000000000000000000e+00 0.000000000000000000e+00 7.011100852195225284e-15 -1.055468356553338663e-14 0.000000000000000000e+00 3.513187470217100695e-15 -1.010409974949035906e-14
1.499845478923106157e+02 6.649505555038079732e-03 5.030967172831578987e-02 -1.750892907853040126e-03 -2.064260333172334913e-02 9.857656805897722918e-02 -5.091641563107839052e-02 -7.933748992950431789e-02 -1.603302837893142152e-01 -9.459017832335490927e-02 4.890618931661494528e-02 1.535063210405233913e-01 1.553666537894117690e-02 -6.153840864862800825e-02 -2.305549825107540418e-02 -5.062799428264709578e-02 -1.223421519086530934e-01 -1.462641866492526144e-01 -5.009058466785766550e-02 3.523653164371666306e-03 5.116504985104691067e-02 2.624064297052023514e-02 -2.061644220032721880e-02 7.093375672377397190e-02 -5.700039794739737709e-02 1.434340310732458712e-01 6.920746453925828989e-01 -1.366896737310754895e-02 6.380690268287639300e-02 1.651507421899367223e-01 -2.224586612378051317e-02 1.141578978853192983e-01 2.617872885485158507e-01 3.775244123932054805e-04 -2.182297398128992157e-03 -3.709821975480253470e-02 5.848099088482213576e-02 5.660397009745845795e-03 -1.082994523984896817e+00 -4.850260238284365144e-02 -1.951599560685177148e-01 5.975707776566947793e-02 1.618567142958481364e-01 -2.331014473510373830e-01 -1.195656236950563001e+00 -6.491657559143403089e-02 -8.255028367230021757e-01 -4.075887487966768363e-01 -2.469288012750204056e-02 2.926300828235783413e+00 -2.485588377109653635e+01 7.723097267193759219e-01 1.907609014074862497e+00 6.169662349811085633e+00 0.000000000000000000e+00 0.000000000000000000e+00 0.000000000000000000e+00 3.865515969904960092e-15 2.167850938014797751e-15 0.000000000000000000e+00 -1.438624414848388713e-15 1.470402890052946473e-14 0.000000000000000000e+00 3.825836829423079238e-16 1.094273776512676246e-14 1.321175567558385640e-14 0.000000000000000000e+00 0.000000000000000000e+00 0.000000000000000000e+00 0.000000000000000000e+00 -1.824800634451175461e-14 2.704004109541561579e-15 0.000000000000000000e+00 -6.658388946004320020e-15 -1.852869332406050643e-14 3.825836829423079238e-16 1.094273776512676246e-14 1.321175567558385640e-14 0.000000000000000000e+00 1.614662803785032938e-14 1.345434094242630408e-14 0.000000000000000000e+00 2.243852966336606696e-16 2.353934927128521408e-14 0.000000000000000000e+00 8.470336683782975276e-16 8.821601607036973078e-15 3.825836829423079238e-16 1.094273776512676246e-14 1.321175567558385640e-14 0.000000000000000000e+00 0.000000000000000000e+00 0.000000000000000000e+00 0.000000000000000000e+00 4.056738364536627862e-15 5.560302761164725855e-15 0.000000000000000000e+00 2.999587439604250930e-15 -1.458424969691416185e-15 3.825836829423079238e-16 1.094273776512676246e-14 1.321175567558385640e-14 0.000000000000000000e+00 0.000000000000000000e+00 0.000000000000000000e+00 0.000000000000000000e+00 1.832365390943766637e-15 1.128025317183544154e-14 0.000000000000000000e+00 -1.016348024507341296e-14 2.988242261935064960e-15 -1.284071781500948917e-01 -1.889071651315175904e-01 -8.116406564634057741e-01 3.482313240131760801e-01 -8.515412238213006593e-03 -4.221173889352475284e-01 -4.411125953897395147e-01 -1.242868656735188093e+00 3.246787818604357057e+00 8.986578884281603008e-01 3.594361342826199568e+00 -2.509320486483942236e+00 0.000000000000000000e+00 0.000000000000000000e+00 0.000000000000000000e+00 -1.781224327454745604e-15 9.615444158399542772e-16 0.000000000000000000e+00 -1.904667862926129482e-15 -5.905731031459235330e-15 0.000000000000000000e+00 -2.786979940676819966e-15 3.850267412268448240e-15 -3.541595883736984537e-15 0.000000000000000000e+00 0.000000000000000000e+00 0.000000000000000000e+00 0.000000000000000000e+00 4.281247979168801984e-15 -2.196840783882142873e-14 0.000000000000000000e+00 5.656948301941211620e-15 9.141508449122296789e-16 -2.786979940676819966e-15 3.850267412268448240e-15 -3.541595883736984537e-15 0.000000000000000000e+00 7.696526728618111577e-15 -9.855349523715042202e-15 0.000000000000000000e+00 -4.452122492972441892e-15 1.086597750321461959e-14 0.000000000000000000e+00 3.420691700367201404e-15 -4.417708519233048151e-15 -2.786979940676819966e-15 3.850267412268448240e-15 -3.541595883736984537e-15 0.000000000000000000e+00 0.000000000000000000e+00 0.000000000000000000e+00 0.000000000000000000e+00 2.551827569306100530e-15 1.886961087946500400e-15 0.000000000000000000e+00 -1.233119689251020140e-14 -6.890143218270072792e-15 -2.786979940676819966e-15 3.850267412268448240e-15 -3.541595883736984537e-15 0.000000000000000000e+00 0.000000000000000000e+00 0.000000000000000000e+00 0.000000000000000000e+00 1.058767958724936842e-14 -3.675017011927543021e-15 0.000000000000000000e+00 9.324497681293130359e-15 -1.307224796143328980e-14
